<?xml version="1.0" encoding="UTF-8"?>
<svg version="1.1" xmlns="http://www.w3.org/2000/svg" width="1024" height="1024">
<path d="M0 0 C14.79606315 14.14545612 23.39645194 31.14169767 32.43261719 49.17871094 C34.21566105 52.6755232 36.08609009 56.10930038 38.02783203 59.52001953 C40.71561981 64.34085186 42.82951271 69.40512481 44.97265625 74.484375 C47.99037908 81.48881424 51.46821666 88.26750926 54.90222168 95.0737915 C56.95944692 99.15405196 59.00648777 103.23942231 61.0546875 107.32421875 C61.48431793 108.18083099 61.91394836 109.03744324 62.3565979 109.92001343 C77.59151959 140.3021966 77.59151959 140.3021966 84.16503906 154.22436523 C87.86943212 162.04450616 91.74407222 169.77638786 95.62890625 177.5078125 C100.15316291 186.51789177 104.64893407 195.53924058 109.00390625 204.6328125 C109.42293213 205.50180176 109.84195801 206.37079102 110.27368164 207.26611328 C110.6474292 208.05228027 111.02117676 208.83844727 111.40625 209.6484375 C111.89146118 210.66599121 111.89146118 210.66599121 112.38647461 211.70410156 C113.06640625 213.3828125 113.06640625 213.3828125 113.06640625 215.3828125 C113.72640625 215.7128125 114.38640625 216.0428125 115.06640625 216.3828125 C115.78317682 218.02855312 116.44284023 219.69954555 117.06640625 221.3828125 C118.64217672 224.84355153 120.29712339 228.26666122 121.94140625 231.6953125 C122.42609375 232.70787109 122.91078125 233.72042969 123.41015625 234.76367188 C126.89098574 242.00647478 130.45628529 249.2037216 134.06640625 256.3828125 C138.28379038 264.77054924 142.40281131 273.19638385 146.42529297 281.67919922 C149.45960028 288.06288624 152.54679245 294.41819488 155.6640625 300.76171875 C179.66349307 349.61851597 179.66349307 349.61851597 184.06640625 369.3828125 C184.31132813 370.47722656 184.55625 371.57164062 184.80859375 372.69921875 C190.51150164 404.53394428 184.20830986 438.52631591 166.06640625 465.3828125 C149.75809389 487.50000258 127.98299165 502.04772223 101.06640625 507.3828125 C100.20094933 507.55917614 99.3354924 507.73553978 98.44380951 507.91724777 C94.12213267 508.51297773 89.89690471 508.52752035 85.53967285 508.52325439 C84.587312 508.52622552 83.63495114 508.52919664 82.65373087 508.5322578 C79.46641059 508.54092111 76.27912798 508.54245102 73.09179688 508.54394531 C70.80510885 508.548575 68.51842159 508.55359987 66.23173523 508.55899048 C60.02320827 508.57209823 53.81469212 508.57855578 47.60615349 508.58300114 C43.72822296 508.58593329 39.85029538 508.59003828 35.97236633 508.59450531 C25.23031447 508.60660838 14.48826646 508.61699344 3.74620819 508.6203804 C3.05947487 508.62059997 2.37274154 508.62081953 1.66519812 508.62104575 C0.97685659 508.62126403 0.28851507 508.62148231 -0.42068529 508.6217072 C-1.81545035 508.62215066 -3.21021541 508.62259723 -4.60498047 508.62304688 C-5.64275002 508.62337902 -5.64275002 508.62337902 -6.70148462 508.62371787 C-17.91973641 508.62766861 -29.13792336 508.64513412 -40.35615009 508.6684064 C-51.88024085 508.69211997 -63.40428981 508.70432416 -74.92840624 508.70574832 C-81.3962939 508.70679748 -87.86408995 508.71272957 -94.33195496 508.73056793 C-100.41240937 508.74701259 -106.49270293 508.74922162 -112.57317162 508.74042892 C-114.80566526 508.73965673 -117.03816743 508.74402515 -119.27063942 508.75388718 C-122.3162393 508.76655341 -125.3612648 508.76075874 -128.40686035 508.75030518 C-129.29188154 508.75836158 -130.17690272 508.76641798 -131.08874273 508.77471852 C-136.12355285 508.73425074 -139.56074798 508.15678524 -143.93359375 505.3828125 C-147.14213017 501.98107389 -147.7404803 499.09059708 -148.0546875 494.53125 C-147.07765201 469.12832717 -131.58036651 443.97764743 -113.75 426.7890625 C-102.28260025 416.99167242 -84.44282982 404.3828125 -68.93359375 404.3828125 C-68.60359375 403.7228125 -68.27359375 403.0628125 -67.93359375 402.3828125 C-57.25544419 399.83220237 -46.08063404 400.01293176 -35.16894531 399.85107422 C-19.95395343 399.60387412 -5.33301835 399.0049502 6.46875 388.1796875 C13.93416478 379.78337747 16.24827156 371.05128433 16.4296875 360.0546875 C15.45416441 350.19456168 11.59870614 341.55791308 7.37890625 332.6953125 C6.80910837 331.48362046 6.23961775 330.2717839 5.67041016 329.05981445 C0.64387224 318.40810668 -4.61122069 307.86770582 -9.9362793 297.36254883 C-14.28994519 288.76132602 -18.48295275 280.09095045 -22.6287384 271.38764954 C-27.28059701 261.63071001 -32.02947502 251.92253548 -36.79248047 242.21948242 C-43.71005312 228.12524765 -50.61601735 214.0257212 -57.43359375 199.8828125 C-57.96549316 198.78211426 -58.49739258 197.68141602 -59.04541016 196.54736328 C-61.70405537 191.03883269 -64.34436086 185.52225463 -66.95785522 179.9921875 C-68.33729255 177.07718644 -69.72455213 174.16594387 -71.11279297 171.25512695 C-71.77919 169.85246608 -72.44185937 168.44802747 -73.10058594 167.04174805 C-74.00843032 165.10406478 -74.9285409 163.17267638 -75.8515625 161.2421875 C-76.37516357 160.13327148 -76.89876465 159.02435547 -77.43823242 157.88183594 C-78.74374954 155.08404005 -78.74374954 155.08404005 -81.93359375 154.3828125 C-82.01609375 153.3309375 -82.09859375 152.2790625 -82.18359375 151.1953125 C-83.00532424 147.0181825 -83.91067033 145.32176583 -86.93359375 142.3828125 C-89.53274913 141.19253266 -89.53274913 141.19253266 -91.93359375 140.3828125 C-92.26359375 139.7228125 -92.59359375 139.0628125 -92.93359375 138.3828125 C-95.30929918 138.3012043 -97.68215216 138.24204028 -100.05859375 138.1953125 C-100.72375 138.17017578 -101.38890625 138.14503906 -102.07421875 138.11914062 C-108.11678821 138.03027931 -111.8210737 139.52929792 -116.32910156 143.48461914 C-119.4292312 146.93434158 -121.35052915 150.43505418 -123.42578125 154.5546875 C-123.84842255 155.37555847 -124.27106384 156.19642944 -124.70651245 157.04217529 C-126.12841577 159.81604123 -127.53288345 162.59818783 -128.93359375 165.3828125 C-129.4392688 166.38578369 -129.94494385 167.38875488 -130.46594238 168.42211914 C-134.35470128 176.14682256 -138.20951986 183.88827703 -142.05859375 191.6328125 C-155.09101755 217.85373704 -155.09101755 217.85373704 -161.35498047 229.45263672 C-163.28870715 233.0419636 -165.12486545 236.66651983 -166.93359375 240.3203125 C-167.51109375 241.48433594 -168.08859375 242.64835937 -168.68359375 243.84765625 C-169.02181152 244.53045654 -169.3600293 245.21325684 -169.70849609 245.91674805 C-171.228293 248.97602835 -172.75659682 252.03102975 -174.28515625 255.0859375 C-177.49098634 261.49324154 -180.69020172 267.90382483 -183.887146 274.31556702 C-186.06188388 278.67687629 -188.23833611 283.03732951 -190.41509628 287.39762974 C-192.02064011 290.61391918 -193.62542445 293.830583 -195.22851562 297.0480957 C-196.81151516 300.22518877 -198.39663262 303.40121776 -199.9830513 306.57660484 C-200.85153833 308.31622682 -201.71798263 310.05686817 -202.58432007 311.79756165 C-205.41651498 317.46233758 -208.29807619 323.09241615 -211.26639748 328.68672466 C-218.11102987 341.58799416 -224.62496051 354.65210169 -231.1378212 367.72280502 C-232.8156402 371.08861699 -234.49618751 374.45306614 -236.17651367 377.81762695 C-240.43128599 386.33815239 -244.68263779 394.86038257 -248.93359375 403.3828125 C-253.52710574 412.59200788 -258.12126477 421.80087741 -262.71936893 431.00778103 C-264.3807701 434.33469071 -266.04133756 437.66201052 -267.69979858 440.99038696 C-280.20465541 466.08577905 -280.20465541 466.08577905 -286.7714386 478.38908386 C-289.18875657 482.92146762 -291.46721688 487.49854116 -293.68359375 492.1328125 C-296.95720865 498.68769092 -299.85412863 503.58161592 -306.24609375 507.3203125 C-316.98800825 510.41544041 -325.56948985 506.747566 -335.19921875 501.65625 C-360.83894599 486.60684488 -378.90038917 462.26462418 -387.09375 433.7109375 C-397.16718605 393.79201884 -391.4145771 353.13450765 -370.48120117 317.66308594 C-366.67089549 311.16372943 -363.40170708 304.38907505 -360.05783081 297.64294434 C-358.52076451 294.55287322 -356.96714857 291.471265 -355.41261292 288.38995361 C-353.81843725 285.22983145 -352.2290475 282.06731179 -350.63964844 278.90478516 C-349.82265429 277.28105064 -349.00425173 275.65802414 -348.18457031 274.03564453 C-346.98261836 271.65581743 -345.78573002 269.27350465 -344.58984375 266.890625 C-344.22121216 266.16368439 -343.85258057 265.43674377 -343.47277832 264.68777466 C-341.58505544 261.20681669 -341.58505544 261.20681669 -340.93359375 257.3828125 C-340.29164063 256.77373047 -340.29164063 256.77373047 -339.63671875 256.15234375 C-337.29917425 253.72365646 -336.15705353 251.10683435 -334.68359375 248.0703125 C-333.97837334 246.63256284 -333.27259347 245.19508753 -332.56640625 243.7578125 C-332.16067383 242.92765625 -331.75494141 242.0975 -331.33691406 241.2421875 C-328.75635918 235.9841049 -326.13976366 230.74397717 -323.52307129 225.5038147 C-322.5936375 223.64056523 -321.66724182 221.77583113 -320.74121094 219.91088867 C-317.34137244 213.08221276 -313.8518006 206.30925105 -310.27734375 199.5703125 C-303.91187614 187.55078285 -297.87235986 175.3689537 -291.80859375 163.1953125 C-290.66946186 160.91201406 -289.53013977 158.62881051 -288.390625 156.34570312 C-284.43858953 148.42608525 -280.48768166 140.50590717 -276.54418945 132.58203125 C-272.89915586 125.26437033 -269.18930043 117.98695048 -265.37109375 110.7578125 C-260.56469939 101.60708702 -255.9113623 92.38689408 -251.30859375 83.1328125 C-246.92683764 74.3233177 -242.50629132 65.54471347 -237.85107422 56.87548828 C-235.16073164 51.82573616 -232.61763279 46.71575615 -230.1171875 41.5703125 C-229.42138999 40.14750268 -228.72534239 38.72481513 -228.02905273 37.30224609 C-226.99478444 35.18903345 -225.96528516 33.07429593 -224.95291138 30.95050049 C-210.92327738 1.5254015 -185.95442526 -17.73014034 -155.93359375 -29.6171875 C-149.06358471 -32.00795065 -142.08898378 -34.04927664 -135.08398438 -36.00390625 C-133.35391857 -36.49731285 -131.64032161 -37.04827821 -129.93359375 -37.6171875 C-81.79793181 -43.69164287 -36.5139164 -32.57566443 0 0 Z M-80.93359375 151.3828125 C-79.93359375 153.3828125 -79.93359375 153.3828125 -79.93359375 153.3828125 Z " fill="#856DD9" transform="translate(612.93359375,277.6171875)"/>
<path d="M0 0 C2.74792483 3.40219265 6 7.48464588 6 12 C6.66 12.33 7.32 12.66 8 13 C8.71677057 14.64574062 9.37643398 16.31673305 10 18 C11.57577047 21.46073903 13.23071714 24.88384872 14.875 28.3125 C15.3596875 29.32505859 15.844375 30.33761719 16.34375 31.38085938 C19.82457949 38.62366228 23.38987904 45.8209091 27 53 C31.21738413 61.38773674 35.33640506 69.81357135 39.35888672 78.29638672 C42.39319403 84.68007374 45.4803862 91.03538238 48.59765625 97.37890625 C72.59708682 146.23570347 72.59708682 146.23570347 77 166 C77.36738281 167.64162109 77.36738281 167.64162109 77.7421875 169.31640625 C83.44509539 201.15113178 77.14190361 235.14350341 59 262 C42.69168764 284.11719008 20.9165854 298.66490973 -6 304 C-7.29818539 304.26454546 -7.29818539 304.26454546 -8.62259674 304.53443527 C-12.94427358 305.13016523 -17.16950154 305.14470785 -21.5267334 305.14044189 C-22.47909425 305.14341302 -23.43145511 305.14638414 -24.41267538 305.1494453 C-27.59999566 305.15810861 -30.78727827 305.15963852 -33.97460938 305.16113281 C-36.2612974 305.1657625 -38.54798466 305.17078737 -40.83467102 305.17617798 C-47.04319798 305.18928573 -53.25171413 305.19574328 -59.46025276 305.20018864 C-63.33818329 305.20312079 -67.21611087 305.20722578 -71.09403992 305.21169281 C-81.83609178 305.22379588 -92.57813979 305.23418094 -103.32019806 305.2375679 C-104.00693138 305.23778747 -104.69366471 305.23800703 -105.40120813 305.23823325 C-106.08954966 305.23845153 -106.77789118 305.23866981 -107.48709154 305.2388947 C-108.8818566 305.23933816 -110.27662166 305.23978473 -111.67138672 305.24023438 C-112.70915627 305.24056652 -112.70915627 305.24056652 -113.76789087 305.24090537 C-124.98614266 305.24485611 -136.20432961 305.26232162 -147.42255634 305.2855939 C-158.9466471 305.30930747 -170.47069606 305.32151166 -181.99481249 305.32293582 C-188.46270015 305.32398498 -194.9304962 305.32991707 -201.39836121 305.34775543 C-207.47881562 305.36420009 -213.55910918 305.36640912 -219.63957787 305.35761642 C-221.87207151 305.35684423 -224.10457368 305.36121265 -226.33704567 305.37107468 C-229.38264555 305.38374091 -232.42767105 305.37794624 -235.4732666 305.36749268 C-236.35828779 305.37554908 -237.24330897 305.38360548 -238.15514898 305.39190602 C-243.1899591 305.35143824 -246.62715423 304.77397274 -251 302 C-254.20853642 298.59826139 -254.80688655 295.70778458 -255.12109375 291.1484375 C-254.14405826 265.74551467 -238.64677276 240.59483493 -220.81640625 223.40625 C-209.3490065 213.60885992 -191.50923607 201 -176 201 C-175.67 200.34 -175.34 199.68 -175 199 C-164.32185044 196.44938987 -153.14704029 196.63011926 -142.23535156 196.46826172 C-127.02035968 196.22106162 -112.3994246 195.6221377 -100.59765625 184.796875 C-93.11137034 176.37709134 -90.5143024 167.39667409 -90.765625 156.30078125 C-91.6373159 144.02446772 -97.85495192 132.97900663 -103 122 C-101.75347656 121.91363281 -100.50695312 121.82726562 -99.22265625 121.73828125 C-81.03595561 120.31081582 -65.9214084 115.8947896 -50 107 C-49.01386719 106.45601562 -48.02773438 105.91203125 -47.01171875 105.3515625 C-34.75170548 98.07716968 -24.83411468 87.8332437 -17 76 C-16.31292969 74.96746094 -15.62585938 73.93492187 -14.91796875 72.87109375 C-4.40034989 55.83777984 0.4200341 36.45460649 0.125 16.5625 C0.11597656 15.40556641 0.10695313 14.24863281 0.09765625 13.05664062 C0.08034785 10.92647067 0.05889917 8.79632688 0.03173828 6.66625977 C0.00528887 4.44430541 0 2.22211177 0 0 Z " fill="#C5A4E4" transform="translate(720,481)"/>
<path d="M0 0 C15.07505261 5.78221196 25.00025246 34.71869807 31.42163086 48.00366211 C31.85999268 48.90093018 32.29835449 49.79819824 32.75 50.72265625 C33.13671875 51.52453369 33.5234375 52.32641113 33.921875 53.15258789 C34.86898043 55.16244488 34.86898043 55.16244488 37 56 C37.69153862 58.08323316 38.37759853 60.16840815 39.03955078 62.26123047 C40.89635232 67.55599399 43.47079721 72.5306092 45.9375 77.5625 C46.54426053 78.80994488 47.15077968 80.0575072 47.75708008 81.30517578 C53.57731193 93.25013633 59.54463836 105.12253381 65.50396729 116.99850464 C70.78551657 127.52380223 76.00830412 138.06726985 81.03613281 148.71679688 C85.49467749 158.12654311 90.1829612 167.42101675 94.8762207 176.71533203 C104.48915571 195.78233915 104.48915571 195.78233915 104 201 C104.33 201.33 104.66 201.66 105 202 C106.19265956 216.92222742 105.46883092 231.69631666 101 246 C100.68651611 247.02311279 100.68651611 247.02311279 100.36669922 248.06689453 C92.02147297 274.46531435 73.50792443 296.22231025 49 309 C35.80120961 315.46971276 21.87966665 320.2152543 7.0625 320.0625 C5.91910156 320.05347656 4.77570313 320.04445313 3.59765625 320.03515625 C2.74042969 320.02355469 1.88320313 320.01195312 1 320 C0.56171875 319.1234375 0.1234375 318.246875 -0.328125 317.34375 C-0.6269458 316.74618896 -0.9257666 316.14862793 -1.23364258 315.53295898 C-1.92905104 314.14197502 -2.62418786 312.75085522 -3.3190918 311.35961914 C-5.47861112 307.03735939 -7.6440907 302.71818779 -9.81640625 298.40234375 C-10.31172852 297.41621094 -10.80705078 296.43007813 -11.31738281 295.4140625 C-12.26682114 293.52386783 -13.21781214 291.63445164 -14.17089844 289.74609375 C-17.59250931 282.92655098 -20.89578111 276.05467179 -24.1796875 269.16796875 C-29.33622866 258.35505472 -34.58151066 247.58761355 -39.86026001 236.83392334 C-42.36817008 231.72408358 -44.87177329 226.61213535 -47.375 221.5 C-48.10925957 220.00048294 -48.10925957 220.00048294 -48.85835266 218.47067261 C-53.95497193 208.0570304 -59.01572256 197.62671043 -64.02734375 187.171875 C-66.00823128 183.04066066 -68.0232359 178.92887729 -70.06640625 174.828125 C-70.54295654 173.8602002 -71.01950684 172.89227539 -71.51049805 171.89501953 C-72.38245289 170.12489971 -73.26447142 168.35967867 -74.15942383 166.60107422 C-76.4665853 161.8805166 -77.8970974 158.34233006 -77 153 C-75.40055553 149.11804004 -73.39744555 145.48804577 -71.375 141.8125 C-70.09250808 139.41470906 -68.81360219 137.01528364 -67.5390625 134.61328125 C-67.18932373 133.95695709 -66.83958496 133.30063293 -66.47924805 132.62442017 C-60.89186404 122.09324856 -55.66022776 111.37737558 -50.36004639 100.69985962 C-45.16367583 90.23643932 -39.91997686 79.80958423 -34.40948486 69.50720215 C-31.58455989 64.20447458 -28.97272406 58.82168955 -26.4375 53.375 C-23.65164607 47.40852616 -20.75456607 41.54392637 -17.625 35.75 C-12.41884974 26.10781944 -7.76277404 16.20640515 -3.09399414 6.2956543 C-2.08756552 4.18374885 -1.05400435 2.08849566 0 0 Z " fill="#ED6EB6" transform="translate(616,283)"/>
<path d="M0 0 C-0.70210777 3.45939889 -2.03961618 6.32680789 -3.61694336 9.47680664 C-4.4393174 11.12616966 -4.4393174 11.12616966 -5.27830505 12.80885315 C-5.88201294 14.0093571 -6.48586313 15.20978949 -7.08984375 16.41015625 C-7.71493818 17.65915018 -8.33973446 18.90829336 -8.96424866 20.15757751 C-10.2791138 22.78574234 -11.59665314 25.41254286 -12.91625977 28.03833008 C-14.57722422 31.34354324 -16.2331326 34.65125383 -17.8871069 37.95996952 C-19.1820792 40.5496365 -20.47916898 43.13823852 -21.77688789 45.72653008 C-22.67573037 47.51962905 -23.57347822 49.3132766 -24.47117615 51.10694885 C-27.37396705 56.88041346 -30.32058548 62.62456482 -33.34968662 68.33285427 C-40.18846438 81.22452611 -46.69636998 94.27933018 -53.20422745 107.33999252 C-54.88204645 110.70580449 -56.56259376 114.07025364 -58.24291992 117.43481445 C-62.49769224 125.95533989 -66.74904404 134.47757007 -71 143 C-75.59351199 152.20919538 -80.18767102 161.41806491 -84.78577518 170.62496853 C-86.44717635 173.95187821 -88.10774381 177.27919802 -89.76620483 180.60757446 C-102.27106166 205.70296655 -102.27106166 205.70296655 -108.83784485 218.00627136 C-111.25516282 222.53865512 -113.53362313 227.11572866 -115.75 231.75 C-119.0236149 238.30487842 -121.92053488 243.19880342 -128.3125 246.9375 C-139.0544145 250.03262791 -147.6358961 246.3647535 -157.265625 241.2734375 C-182.90535224 226.22403238 -200.96679542 201.88181168 -209.16015625 173.328125 C-220.05742579 130.14452665 -211.19300642 90.31255187 -190 52 C-189.01 52 -188.02 52 -187 52 C-185.47068272 50.53418026 -185.47068272 50.53418026 -184 48.5625 C-164.09060875 24.92009789 -129.55291245 5.30950828 -99 1 C-95.90381283 0.80921668 -92.80819509 0.74407618 -89.70703125 0.68359375 C-88.32755562 0.65235413 -88.32755562 0.65235413 -86.92021179 0.6204834 C-83.88439376 0.55412568 -80.84849231 0.4952988 -77.8125 0.4375 C-76.77319336 0.41632111 -75.73388672 0.39514221 -74.66308594 0.37332153 C-49.77639381 -0.12783717 -24.89045452 -0.10076479 0 0 Z " fill="#B955B6" transform="translate(435,538)"/>
<path d="M0 0 C1.61358398 -0.0049926 1.61358398 -0.0049926 3.25976562 -0.01008606 C5.5221311 -0.01512279 7.78450392 -0.0174954 10.046875 -0.01733398 C13.48970833 -0.0195247 16.93222302 -0.03772697 20.375 -0.05664062 C22.58333225 -0.05957447 24.791666 -0.06155932 27 -0.0625 C28.01900391 -0.06968552 29.03800781 -0.07687103 30.08789062 -0.08427429 C46.02945414 -0.03377923 46.02945414 -0.03377923 51.875 5.35546875 C52.50148438 5.90589844 53.12796875 6.45632813 53.7734375 7.0234375 C59.34708091 13.94635657 58.95367683 21.12198812 58.93359375 29.66015625 C58.9388356 30.96066925 58.94407745 32.26118225 58.94947815 33.60110474 C58.95837973 36.34631091 58.95602111 39.09122572 58.94604492 41.83642578 C58.93457129 45.33212764 58.95475539 48.82681684 58.98396206 52.32238579 C59.00686182 55.68502699 58.99985099 59.04743925 58.99609375 62.41015625 C59.00732773 63.65417206 59.01856171 64.89818787 59.03013611 66.17990112 C58.96932798 73.8156129 58.38101922 80.82804225 53.08811951 86.74679565 C48.21963399 91.0825296 43.71889688 92.4172889 37.3203125 92.42675781 C36.09554199 92.43306213 34.87077148 92.43936646 33.60888672 92.44586182 C32.2942041 92.44181335 30.97952148 92.43776489 29.625 92.43359375 C28.25406831 92.4349422 26.88313709 92.43688424 25.51220703 92.43939209 C22.64415925 92.44233488 19.77623635 92.43807304 16.90820312 92.42871094 C13.23969582 92.41731679 9.5714812 92.42388081 5.90298462 92.43585587 C3.07362683 92.44309738 0.24433794 92.44077604 -2.58502197 92.43560028 C-4.59297883 92.43362525 -6.60093841 92.4396785 -8.60888672 92.44586182 C-9.83365723 92.4395575 -11.05842773 92.43325317 -12.3203125 92.42675781 C-13.39555176 92.42516663 -14.47079102 92.42357544 -15.57861328 92.42193604 C-20.22672778 92.01785772 -23.59947087 90.41225376 -27.125 87.41796875 C-27.69476563 86.94875 -28.26453125 86.47953125 -28.8515625 85.99609375 C-32.93803054 81.46418133 -33.90959153 76.86281846 -34.1796875 70.90234375 C-34.22922073 69.86554474 -34.22922073 69.86554474 -34.27975464 68.80780029 C-34.59918627 61.43119434 -34.65129378 54.04899452 -34.63037109 46.66650391 C-34.62496951 44.40520637 -34.63038187 42.14410443 -34.63671875 39.8828125 C-34.65178372 13.54028525 -34.65178372 13.54028525 -29.5 7.16796875 C-20.95811126 -0.65496343 -10.97594056 0.01198649 0 0 Z " fill="#DE56B3" transform="translate(498.5,537.83203125)"/>
<path d="M0 0 C0.33 0 0.66 0 1 0 C1.00364563 0.74644775 1.00729126 1.49289551 1.01104736 2.26196289 C1.04903711 9.32349076 1.10601322 16.38455707 1.18390274 23.44573975 C1.22328102 27.0753348 1.25551619 30.70469077 1.27099609 34.33447266 C1.28622717 37.84259227 1.32078433 41.35005417 1.36830902 44.85787964 C1.39019599 46.83622203 1.39246818 48.81475033 1.39434814 50.79321289 C1.51034625 57.97395755 2.05949441 62.92282578 6 69 C7.88243863 70.68563866 7.88243863 70.68563866 10 71.4375 C10.99 71.86869141 10.99 71.86869141 12 72.30859375 C16.12531384 73.73472764 19.66962803 74.12258341 24.05371094 74.11352539 C25.88515656 74.11341209 25.88515656 74.11341209 27.75360107 74.11329651 C29.06725647 74.10813522 30.38091187 74.10297394 31.734375 74.09765625 C33.0962926 74.09579021 34.45821088 74.09436718 35.82012939 74.09336853 C39.39741889 74.08955803 42.97466752 74.07974032 46.55194092 74.06866455 C50.20519457 74.05841884 53.85845486 74.05386415 57.51171875 74.04882812 C64.67449776 74.03811669 71.83724314 74.02105794 79 74 C79 74.66 79 75.32 79 76 C76.29868942 77.35065529 74.18535146 77.13460776 71.16088867 77.14526367 C69.32339302 77.15483345 69.32339302 77.15483345 67.44877625 77.16459656 C66.10517415 77.16612551 64.76157152 77.16723932 63.41796875 77.16796875 C62.04274968 77.17118171 60.66753096 77.17454582 59.29231262 77.17805481 C56.40637419 77.18404817 53.5204657 77.18589458 50.63452148 77.18530273 C46.94240845 77.18520128 43.25048848 77.19883477 39.55842113 77.21607494 C36.71620305 77.22721434 33.87403127 77.22922132 31.03179359 77.22869301 C29.67107797 77.22987092 28.31036107 77.23428211 26.94966698 77.24202538 C25.04223496 77.25186059 23.13474637 77.24767386 21.22729492 77.24291992 C20.14300705 77.24434494 19.05871918 77.24576996 17.9415741 77.24723816 C13.28013874 76.85544633 9.90927851 75.25171599 6.375 72.25 C5.80523437 71.78078125 5.23546875 71.3115625 4.6484375 70.828125 C0.56196946 66.29621258 -0.40959153 61.69484971 -0.6796875 55.734375 C-0.71270966 55.04317566 -0.74573181 54.35197632 -0.77975464 53.63983154 C-1.09918627 46.26322559 -1.15129378 38.88102577 -1.13037109 31.49853516 C-1.12496951 29.23723762 -1.13038187 26.97613568 -1.13671875 24.71484375 C-1.14010282 16.42657662 -0.87630495 8.25203798 0 0 Z " fill="#C74C9C" transform="translate(465,553)"/>
<path d="M0 0 C-3.39272553 1.13090851 -3.96833666 0.89855736 -7.18359375 -0.29296875 C-8.01753662 -0.59195068 -8.85147949 -0.89093262 -9.71069336 -1.19897461 C-10.61053955 -1.52518799 -11.51038574 -1.85140137 -12.4375 -2.1875 C-36.25951163 -10.3466153 -59.93606631 -12.53555686 -84.96337891 -8.42431641 C-87.69582127 -8.04250383 -90.24712095 -7.91999305 -93 -8 C-92.67 -8.99 -92.34 -9.98 -92 -11 C-88.35698811 -11.30739957 -84.71254836 -11.58478274 -81.06591797 -11.84570312 C-79.68415425 -11.94890268 -78.30293304 -12.05963158 -76.92236328 -12.17773438 C-50.77556603 -14.39994333 -23.84254111 -11.58798772 0 0 Z " fill="#775CBA" transform="translate(572,251)"/>
<path d="M0 0 C3 1 3 1 4.97265625 4.38671875 C5.67959846 5.81524793 6.37580237 7.24912964 7.0625 8.6875 C7.5894043 9.75000977 7.5894043 9.75000977 8.12695312 10.83398438 C10.07152669 14.81503006 11.70816222 18.7496529 13 23 C10.49962266 20.82575883 9.56371414 19.26954202 9 16 C8.34 16 7.68 16 7 16 C5.82845707 13.71070947 4.66261926 11.41881638 3.5 9.125 C3.16613281 8.47402344 2.83226562 7.82304687 2.48828125 7.15234375 C0 2.2265625 0 2.2265625 0 0 Z " fill="#E26AAE" transform="translate(656,354)"/>
<path d="M0 0 C0.99 0.66 1.98 1.32 3 2 C3.99 2.33 4.98 2.66 6 3 C5.34 3 4.68 3 4 3 C3.74476563 3.59296875 3.48953125 4.1859375 3.2265625 4.796875 C1.88183502 7.21224538 0.50785633 8.51211706 -1.625 10.25 C-2.25664062 10.77078125 -2.88828125 11.2915625 -3.5390625 11.828125 C-4.02117187 12.21484375 -4.50328125 12.6015625 -5 13 C-4.48474397 7.71862571 -2.74522883 4.42778844 0 0 Z " fill="#8463CE" transform="translate(251,579)"/>
<path d="M0 0 C-3.62367345 2.4157823 -7.35795141 3.9170029 -11.375 5.5625 C-12.13039063 5.87896484 -12.88578125 6.19542969 -13.6640625 6.52148438 C-17.42078355 8.06817635 -20.95166819 9.41129836 -25 10 C-21.16600166 6.60838608 -17.22844495 4.58519843 -12.5 2.75 C-11.84902344 2.481875 -11.19804687 2.21375 -10.52734375 1.9375 C-6.89639715 0.49979185 -3.91021308 -0.33086418 0 0 Z " fill="#CA52B2" transform="translate(323,543)"/>
<path d="M0 0 C-0.33 0.66 -0.66 1.32 -1 2 C-3.984375 2.6328125 -3.984375 2.6328125 -7.75 3.125 C-8.98234375 3.29257813 -10.2146875 3.46015625 -11.484375 3.6328125 C-14.36546366 3.9337262 -17.10921414 4.07723474 -20 4 C-19.67 3.01 -19.34 2.02 -19 1 C-16.95857606 0.83038614 -14.91684689 0.66444404 -12.875 0.5 C-11.16957031 0.36078125 -11.16957031 0.36078125 -9.4296875 0.21875 C-6.27402851 0.0174779 -3.16078835 -0.03842904 0 0 Z " fill="#7E64C4" transform="translate(499,239)"/>
<path d="M0 0 C2.15377564 2.62198774 3.40072174 4.64404172 4 8 C3.67 8 3.34 8 3 8 C2.67 12.95 2.34 17.9 2 23 C1.67 23 1.34 23 1 23 C0.83159521 19.91675903 0.66558138 16.83339379 0.5 13.75 C0.45230469 12.87730469 0.40460937 12.00460937 0.35546875 11.10546875 C0.31035156 10.26113281 0.26523437 9.41679687 0.21875 8.546875 C0.17685547 7.77182617 0.13496094 6.99677734 0.09179688 6.19824219 C0.00558463 4.13373418 0 2.0663073 0 0 Z " fill="#C996D7" transform="translate(720,481)"/>
<path d="M0 0 C0 0.66 0 1.32 0 2 C-1.71024476 3.60861731 -3.49438829 5.13938343 -5.3125 6.625 C-6.29863281 7.44226563 -7.28476562 8.25953125 -8.30078125 9.1015625 C-11 11 -11 11 -14 11 C-13.0479279 9.99403703 -12.08812654 8.99538437 -11.125 8 C-10.32449219 7.1646875 -10.32449219 7.1646875 -9.5078125 6.3125 C-8 5 -8 5 -6 5 C-6 4.34 -6 3.68 -6 3 C-2.53846154 0 -2.53846154 0 0 0 Z " fill="#9077E4" transform="translate(421,271)"/>
<path d="M0 0 C3.26008643 3.16952847 6.22237877 6.39937989 9 10 C8.67 10.66 8.34 11.32 8 12 C3.92798692 9.1385854 1.90178748 6.60432758 0 2 C0 1.34 0 0.68 0 0 Z " fill="#DA67AD" transform="translate(621,288)"/>
<path d="M0 0 C0.99 0.495 0.99 0.495 2 1 C2.73075648 3.3140622 3.40138258 5.64828869 4 8 C3.34 8 2.68 8 2 8 C1.67 10.64 1.34 13.28 1 16 C0.67 16 0.34 16 0 16 C0 10.72 0 5.44 0 0 Z " fill="#C2B2EE" transform="translate(722,488)"/>
<path d="M0 0 C0.66 0.33 1.32 0.66 2 1 C1.21625 1.2475 0.4325 1.495 -0.375 1.75 C-3.32317108 3.15389099 -3.9024777 4.00675737 -5 7 C-5.99 6.34 -6.98 5.68 -8 5 C-6.71475739 4.13619741 -5.42157581 3.28419631 -4.125 2.4375 C-3.04605469 1.72400391 -3.04605469 1.72400391 -1.9453125 0.99609375 C-1.30335938 0.66738281 -0.66140625 0.33867188 0 0 Z M-10 9 C-8 10 -8 10 -8 10 Z " fill="#C19BD9" transform="translate(519,691)"/>
<path d="M0 0 C2.67455183 1.33727591 2.98881385 2.73288323 4.1875 5.4375 C4.55230469 6.24058594 4.91710937 7.04367187 5.29296875 7.87109375 C6 10 6 10 5 12 C2.2289312 9.65408148 1.47940716 7.85223799 0.8125 4.3125 C0.65394531 3.50425781 0.49539063 2.69601562 0.33203125 1.86328125 C0.22246094 1.24839844 0.11289062 0.63351562 0 0 Z " fill="#C59CD7" transform="translate(728,498)"/>
<path d="M0 0 C0 3 0 3 -1.53125 4.60546875 C-2.1809375 5.12753906 -2.830625 5.64960937 -3.5 6.1875 C-4.1496875 6.71730469 -4.799375 7.24710938 -5.46875 7.79296875 C-5.9740625 8.19128906 -6.479375 8.58960938 -7 9 C-7.66 8.67 -8.32 8.34 -9 8 C-6.14723863 5.06799526 -3.34920216 2.35684596 0 0 Z " fill="#CE51AC" transform="translate(263,576)"/>
<path d="M0 0 C0.99 0 1.98 0 3 0 C3.33 2.97 3.66 5.94 4 9 C1.49701566 6.06171403 0.53069061 3.82097239 0 0 Z " fill="#D962AB" transform="translate(539,440)"/>
<path d="M0 0 C2.64465038 3.1254959 3.84414715 6.08788267 5 10 C4.34 9.67 3.68 9.34 3 9 C3 8.34 3 7.68 3 7 C2.34 7 1.68 7 1 7 C-0.0625 4.625 -0.0625 4.625 -1 2 C-0.67 1.34 -0.34 0.68 0 0 Z " fill="#C19ED6" transform="translate(769,582)"/>
<path d="M0 0 C1 3 1 3 0.22265625 4.82421875 C-0.8515625 6.54947917 -1.92578125 8.27473958 -3 10 C-3.33 10 -3.66 10 -4 10 C-3.38461538 3.47692308 -3.38461538 3.47692308 -1.4375 1.0625 C-0.7259375 0.5365625 -0.7259375 0.5365625 0 0 Z " fill="#AA4E9F" transform="translate(321,762)"/>
<path d="M0 0 C-2.57784846 2.64752004 -4.91648098 4.94432065 -8 7 C-6.53511706 1.38461538 -6.53511706 1.38461538 -4 -0.4375 C-2 -1 -2 -1 0 0 Z " fill="#7F65C8" transform="translate(500,418)"/>
<path d="M0 0 C0.99 1.485 0.99 1.485 2 3 C1.67 3.66 1.34 4.32 1 5 C0.67 3.35 0.34 1.7 0 0 Z " fill="#DB97D1" transform="translate(616,604)"/>
<path d="M0 0 C0.66 0.66 1.32 1.32 2 2 C1.01 2.495 1.01 2.495 0 3 C0 2.01 0 1.02 0 0 Z " fill="#D2ADE5" transform="translate(617,664)"/>
<path d="M0 0 C0.66 0.66 1.32 1.32 2 2 C1.01 2.495 1.01 2.495 0 3 C0 2.01 0 1.02 0 0 Z " fill="#C6A8D5" transform="translate(796,640)"/>
<path d="M0 0 C0.66 0.66 1.32 1.32 2 2 C1.01 2.495 1.01 2.495 0 3 C0 2.01 0 1.02 0 0 Z " fill="#D59ED8" transform="translate(619,612)"/>
<path d="M0 0 C0.99 0.495 0.99 0.495 2 1 C1.67 1.66 1.34 2.32 1 3 C0.67 2.01 0.34 1.02 0 0 Z " fill="#E774B9" transform="translate(561,492)"/>
<path d="M0 0 C3 1 3 1 3 1 Z " fill="#C9ACD7" transform="translate(724,783)"/>
<path d="" fill="#B45DA9" transform="translate(0,0)"/>
<path d="M0 0 C3 1 3 1 3 1 Z " fill="#D0ABE1" transform="translate(571,676)"/>
<path d="M0 0 C3 1 3 1 3 1 Z " fill="#D0A8E1" transform="translate(564,676)"/>
<path d="M0 0 C0.66 0.66 1.32 1.32 2 2 C1.34 2 0.68 2 0 2 C0 1.34 0 0.68 0 0 Z " fill="#D1A9E1" transform="translate(561,675)"/>
<path d="M0 0 C0.66 0 1.32 0 2 0 C1.67 0.66 1.34 1.32 1 2 C0.67 1.34 0.34 0.68 0 0 Z " fill="#B65EA9" transform="translate(218,672)"/>
<path d="M0 0 C0.66 0.66 1.32 1.32 2 2 C1.34 2 0.68 2 0 2 C0 1.34 0 0.68 0 0 Z " fill="#DA6DB8" transform="translate(478,630)"/>
<path d="M0 0 C0.66 0 1.32 0 2 0 C1.67 0.66 1.34 1.32 1 2 C0.67 1.34 0.34 0.68 0 0 Z " fill="#E77ABB" transform="translate(602,577)"/>
<path d="" fill="#E874B8" transform="translate(0,0)"/>
<path d="" fill="#CD6FBB" transform="translate(0,0)"/>
<path d="M0 0 C2 1 2 1 2 1 Z " fill="#C7A8D6" transform="translate(702,787)"/>
<path d="" fill="#C09FCD" transform="translate(0,0)"/>
<path d="M0 0 C2 1 2 1 2 1 Z " fill="#B15CA6" transform="translate(249,758)"/>
<path d="" fill="#B35BA5" transform="translate(0,0)"/>
<path d="" fill="#B25BA7" transform="translate(0,0)"/>
<path d="" fill="#B55CA8" transform="translate(0,0)"/>
<path d="M0 0 C2 1 2 1 2 1 Z " fill="#CFABE0" transform="translate(520,688)"/>
<path d="" fill="#B75DAB" transform="translate(0,0)"/>
<path d="" fill="#D3ABE1" transform="translate(0,0)"/>
<path d="" fill="#B55CA8" transform="translate(0,0)"/>
<path d="" fill="#D2ABE2" transform="translate(0,0)"/>
<path d="M0 0 C2 1 2 1 2 1 Z " fill="#DE74BA" transform="translate(517,631)"/>
<path d="M0 0 C2 1 2 1 2 1 Z " fill="#DC72B7" transform="translate(508,631)"/>
<path d="M0 0 C2 1 2 1 2 1 Z " fill="#DE73B9" transform="translate(492,631)"/>
<path d="M0 0 C2 1 2 1 2 1 Z " fill="#DB6BB9" transform="translate(473,628)"/>
<path d="" fill="#D3A8DF" transform="translate(0,0)"/>
<path d="" fill="#D5A0D9" transform="translate(0,0)"/>
<path d="M0 0 C2 1 2 1 2 1 Z " fill="#E583C2" transform="translate(609,592)"/>
<path d="" fill="#E57ABC" transform="translate(0,0)"/>
<path d="" fill="#E66DB5" transform="translate(0,0)"/>
<path d="" fill="#E46BB6" transform="translate(0,0)"/>
<path d="" fill="#E06BB7" transform="translate(0,0)"/>
<path d="" fill="#E773B6" transform="translate(0,0)"/>
<path d="" fill="#E273B7" transform="translate(0,0)"/>
<path d="M0 0 C2 1 2 1 2 1 Z " fill="#E474B8" transform="translate(553,477)"/>
<path d="" fill="#DE7AB8" transform="translate(0,0)"/>
<path d="" fill="#DF75B2" transform="translate(0,0)"/>
<path d="" fill="#DD74B2" transform="translate(0,0)"/>
<path d="M0 0 C2 1 2 1 2 1 Z " fill="#8A6FC8" transform="translate(420,266)"/>
<path d="M0 0 C2 1 2 1 2 1 Z " fill="#8A6ECB" transform="translate(465,243)"/>
<path d="M0 0 C2 1 2 1 2 1 Z " fill="#8B6FCD" transform="translate(473,241)"/>
<path d="M0 0 C2 1 2 1 2 1 Z " fill="#886DC7" transform="translate(542,240)"/>
<path d="M0 0 C2 1 2 1 2 1 Z " fill="#8B6EC9" transform="translate(477,240)"/>
<path d="" fill="#C7A9D7" transform="translate(0,0)"/>
<path d="" fill="#C7ABD8" transform="translate(0,0)"/>
<path d="" fill="#C4A3D2" transform="translate(0,0)"/>
<path d="" fill="#AF60A4" transform="translate(0,0)"/>
<path d="" fill="#C7AAD6" transform="translate(0,0)"/>
<path d="" fill="#C0A1D0" transform="translate(0,0)"/>
<path d="" fill="#C4A7D5" transform="translate(0,0)"/>
<path d="" fill="#C6A8D6" transform="translate(0,0)"/>
<path d="" fill="#C5A7D8" transform="translate(0,0)"/>
<path d="" fill="#C6A7D7" transform="translate(0,0)"/>
<path d="" fill="#C19FCE" transform="translate(0,0)"/>
<path d="" fill="#B35CA9" transform="translate(0,0)"/>
<path d="" fill="#C7A9D8" transform="translate(0,0)"/>
<path d="" fill="#B15DA9" transform="translate(0,0)"/>
<path d="" fill="#C7A7D7" transform="translate(0,0)"/>
<path d="" fill="#C7A7D8" transform="translate(0,0)"/>
<path d="" fill="#B15AA6" transform="translate(0,0)"/>
<path d="" fill="#B15BA5" transform="translate(0,0)"/>
<path d="" fill="#B15BA6" transform="translate(0,0)"/>
<path d="" fill="#AD5AA3" transform="translate(0,0)"/>
<path d="" fill="#B15AA5" transform="translate(0,0)"/>
<path d="" fill="#BC65B1" transform="translate(0,0)"/>
<path d="" fill="#B35DA9" transform="translate(0,0)"/>
<path d="" fill="#C5A5D5" transform="translate(0,0)"/>
<path d="" fill="#B35CA9" transform="translate(0,0)"/>
<path d="" fill="#B45DA7" transform="translate(0,0)"/>
<path d="" fill="#B25BA7" transform="translate(0,0)"/>
<path d="" fill="#B45CA9" transform="translate(0,0)"/>
<path d="" fill="#CFACE3" transform="translate(0,0)"/>
<path d="" fill="#B45CA9" transform="translate(0,0)"/>
<path d="" fill="#D0ACE2" transform="translate(0,0)"/>
<path d="" fill="#B760AD" transform="translate(0,0)"/>
<path d="" fill="#B460A9" transform="translate(0,0)"/>
<path d="" fill="#C5A7D2" transform="translate(0,0)"/>
<path d="" fill="#CFAADE" transform="translate(0,0)"/>
<path d="" fill="#D0ABE0" transform="translate(0,0)"/>
<path d="" fill="#C7A9D7" transform="translate(0,0)"/>
<path d="" fill="#B25EA7" transform="translate(0,0)"/>
<path d="" fill="#CEA8E0" transform="translate(0,0)"/>
<path d="" fill="#CFA8E0" transform="translate(0,0)"/>
<path d="" fill="#D1AADC" transform="translate(0,0)"/>
<path d="" fill="#C166B3" transform="translate(0,0)"/>
<path d="" fill="#D1AAE0" transform="translate(0,0)"/>
<path d="" fill="#C6A9D8" transform="translate(0,0)"/>
<path d="" fill="#B65CAA" transform="translate(0,0)"/>
<path d="" fill="#D2A9DF" transform="translate(0,0)"/>
<path d="" fill="#C267B3" transform="translate(0,0)"/>
<path d="" fill="#D1AAE1" transform="translate(0,0)"/>
<path d="" fill="#B55DA8" transform="translate(0,0)"/>
<path d="" fill="#D3AAE1" transform="translate(0,0)"/>
<path d="" fill="#B55DA9" transform="translate(0,0)"/>
<path d="" fill="#D0AFE5" transform="translate(0,0)"/>
<path d="" fill="#CFAAE2" transform="translate(0,0)"/>
<path d="" fill="#CFABE1" transform="translate(0,0)"/>
<path d="" fill="#D1ACE5" transform="translate(0,0)"/>
<path d="" fill="#D0ADE5" transform="translate(0,0)"/>
<path d="" fill="#D2B0E7" transform="translate(0,0)"/>
<path d="" fill="#D1ADE2" transform="translate(0,0)"/>
<path d="" fill="#D1ADE3" transform="translate(0,0)"/>
<path d="" fill="#C165B3" transform="translate(0,0)"/>
<path d="" fill="#CFA9E2" transform="translate(0,0)"/>
<path d="" fill="#D2ADE2" transform="translate(0,0)"/>
<path d="" fill="#B45EA9" transform="translate(0,0)"/>
<path d="" fill="#B55FAB" transform="translate(0,0)"/>
<path d="" fill="#D3ACE3" transform="translate(0,0)"/>
<path d="" fill="#C5A7D5" transform="translate(0,0)"/>
<path d="" fill="#C265B7" transform="translate(0,0)"/>
<path d="" fill="#D1ABE1" transform="translate(0,0)"/>
<path d="" fill="#C6A9D5" transform="translate(0,0)"/>
<path d="" fill="#D2AAE2" transform="translate(0,0)"/>
<path d="" fill="#DD79BD" transform="translate(0,0)"/>
<path d="" fill="#DD78BC" transform="translate(0,0)"/>
<path d="" fill="#E275BA" transform="translate(0,0)"/>
<path d="" fill="#DD72BA" transform="translate(0,0)"/>
<path d="" fill="#DE71B8" transform="translate(0,0)"/>
<path d="" fill="#DF71BA" transform="translate(0,0)"/>
<path d="" fill="#DC72BA" transform="translate(0,0)"/>
<path d="" fill="#DC7ABE" transform="translate(0,0)"/>
<path d="" fill="#DB6CB9" transform="translate(0,0)"/>
<path d="" fill="#DB6AB6" transform="translate(0,0)"/>
<path d="" fill="#C5A7D5" transform="translate(0,0)"/>
<path d="" fill="#D3A9DF" transform="translate(0,0)"/>
<path d="" fill="#D56CB5" transform="translate(0,0)"/>
<path d="" fill="#D7AADE" transform="translate(0,0)"/>
<path d="" fill="#D766B4" transform="translate(0,0)"/>
<path d="" fill="#D668B1" transform="translate(0,0)"/>
<path d="" fill="#D568B3" transform="translate(0,0)"/>
<path d="" fill="#D6A1D8" transform="translate(0,0)"/>
<path d="" fill="#C7AAD7" transform="translate(0,0)"/>
<path d="" fill="#D79AD4" transform="translate(0,0)"/>
<path d="" fill="#B061AC" transform="translate(0,0)"/>
<path d="" fill="#E271B9" transform="translate(0,0)"/>
<path d="" fill="#AF63AD" transform="translate(0,0)"/>
<path d="" fill="#E370B9" transform="translate(0,0)"/>
<path d="" fill="#DF84C5" transform="translate(0,0)"/>
<path d="" fill="#E385C5" transform="translate(0,0)"/>
<path d="" fill="#E386C8" transform="translate(0,0)"/>
<path d="" fill="#E484C4" transform="translate(0,0)"/>
<path d="" fill="#E580C0" transform="translate(0,0)"/>
<path d="" fill="#E26EB8" transform="translate(0,0)"/>
<path d="" fill="#C9A7D8" transform="translate(0,0)"/>
<path d="" fill="#C7A8D6" transform="translate(0,0)"/>
<path d="" fill="#E77EBE" transform="translate(0,0)"/>
<path d="" fill="#E46CB6" transform="translate(0,0)"/>
<path d="" fill="#C566B7" transform="translate(0,0)"/>
<path d="" fill="#E77DBF" transform="translate(0,0)"/>
<path d="" fill="#E87CBE" transform="translate(0,0)"/>
<path d="" fill="#C264B4" transform="translate(0,0)"/>
<path d="" fill="#E97CBE" transform="translate(0,0)"/>
<path d="" fill="#E87CBE" transform="translate(0,0)"/>
<path d="" fill="#E87BBD" transform="translate(0,0)"/>
<path d="" fill="#E879BB" transform="translate(0,0)"/>
<path d="" fill="#E56DB7" transform="translate(0,0)"/>
<path d="" fill="#C564B5" transform="translate(0,0)"/>
<path d="" fill="#E875B7" transform="translate(0,0)"/>
<path d="" fill="#C663B4" transform="translate(0,0)"/>
<path d="" fill="#C461B4" transform="translate(0,0)"/>
<path d="" fill="#E66CB5" transform="translate(0,0)"/>
<path d="" fill="#E776B9" transform="translate(0,0)"/>
<path d="" fill="#E877B8" transform="translate(0,0)"/>
<path d="" fill="#E976B8" transform="translate(0,0)"/>
<path d="" fill="#E879BC" transform="translate(0,0)"/>
<path d="" fill="#EB76BB" transform="translate(0,0)"/>
<path d="" fill="#EE78BA" transform="translate(0,0)"/>
<path d="" fill="#BF64B6" transform="translate(0,0)"/>
<path d="" fill="#E675B8" transform="translate(0,0)"/>
<path d="" fill="#E775B7" transform="translate(0,0)"/>
<path d="" fill="#C8A9D9" transform="translate(0,0)"/>
<path d="" fill="#E873B7" transform="translate(0,0)"/>
<path d="" fill="#916EC7" transform="translate(0,0)"/>
<path d="" fill="#E673B8" transform="translate(0,0)"/>
<path d="" fill="#E875B9" transform="translate(0,0)"/>
<path d="" fill="#906EC4" transform="translate(0,0)"/>
<path d="" fill="#EA73B6" transform="translate(0,0)"/>
<path d="" fill="#B365BF" transform="translate(0,0)"/>
<path d="" fill="#B569C1" transform="translate(0,0)"/>
<path d="" fill="#E973B8" transform="translate(0,0)"/>
<path d="" fill="#E874B8" transform="translate(0,0)"/>
<path d="" fill="#8F71C7" transform="translate(0,0)"/>
<path d="" fill="#8D6FC4" transform="translate(0,0)"/>
<path d="" fill="#CBA5D7" transform="translate(0,0)"/>
<path d="" fill="#C9A4D4" transform="translate(0,0)"/>
<path d="" fill="#9070CA" transform="translate(0,0)"/>
<path d="" fill="#C9A5D4" transform="translate(0,0)"/>
<path d="" fill="#8E6EC7" transform="translate(0,0)"/>
<path d="" fill="#9B6FD0" transform="translate(0,0)"/>
<path d="" fill="#CBA1D3" transform="translate(0,0)"/>
<path d="" fill="#986ED0" transform="translate(0,0)"/>
<path d="" fill="#9A70D0" transform="translate(0,0)"/>
<path d="" fill="#CA9ECE" transform="translate(0,0)"/>
<path d="" fill="#E372B7" transform="translate(0,0)"/>
<path d="" fill="#CB99C9" transform="translate(0,0)"/>
<path d="" fill="#9872D0" transform="translate(0,0)"/>
<path d="" fill="#956ED0" transform="translate(0,0)"/>
<path d="" fill="#CB90C7" transform="translate(0,0)"/>
<path d="" fill="#E173BA" transform="translate(0,0)"/>
<path d="" fill="#E271B7" transform="translate(0,0)"/>
<path d="" fill="#8C71CC" transform="translate(0,0)"/>
<path d="" fill="#E176BA" transform="translate(0,0)"/>
<path d="" fill="#8B6FC9" transform="translate(0,0)"/>
<path d="" fill="#8F72CF" transform="translate(0,0)"/>
<path d="" fill="#DE72BB" transform="translate(0,0)"/>
<path d="" fill="#9672D2" transform="translate(0,0)"/>
<path d="" fill="#9370D3" transform="translate(0,0)"/>
<path d="" fill="#D172BA" transform="translate(0,0)"/>
<path d="" fill="#CF70BB" transform="translate(0,0)"/>
<path d="" fill="#D271BD" transform="translate(0,0)"/>
<path d="" fill="#D16FBC" transform="translate(0,0)"/>
<path d="" fill="#9773D1" transform="translate(0,0)"/>
<path d="" fill="#DD78B6" transform="translate(0,0)"/>
<path d="" fill="#DF79B6" transform="translate(0,0)"/>
<path d="" fill="#8D6FCC" transform="translate(0,0)"/>
<path d="" fill="#DC79B6" transform="translate(0,0)"/>
<path d="" fill="#E079B5" transform="translate(0,0)"/>
<path d="" fill="#8C71CC" transform="translate(0,0)"/>
<path d="" fill="#9273D3" transform="translate(0,0)"/>
<path d="" fill="#9E73CD" transform="translate(0,0)"/>
<path d="" fill="#E078B5" transform="translate(0,0)"/>
<path d="" fill="#8D71CB" transform="translate(0,0)"/>
<path d="" fill="#9F77D3" transform="translate(0,0)"/>
<path d="" fill="#9A74D1" transform="translate(0,0)"/>
<path d="" fill="#9C74D0" transform="translate(0,0)"/>
<path d="" fill="#9974D2" transform="translate(0,0)"/>
<path d="" fill="#9974D1" transform="translate(0,0)"/>
<path d="" fill="#DD76B4" transform="translate(0,0)"/>
<path d="" fill="#9974D2" transform="translate(0,0)"/>
<path d="" fill="#9A75D2" transform="translate(0,0)"/>
<path d="" fill="#9A74D3" transform="translate(0,0)"/>
<path d="" fill="#8E71CD" transform="translate(0,0)"/>
<path d="" fill="#DE77B1" transform="translate(0,0)"/>
<path d="" fill="#DE74B0" transform="translate(0,0)"/>
<path d="" fill="#DF76B1" transform="translate(0,0)"/>
<path d="" fill="#DF74B2" transform="translate(0,0)"/>
<path d="" fill="#E174B2" transform="translate(0,0)"/>
<path d="" fill="#E077B4" transform="translate(0,0)"/>
<path d="" fill="#DE74B3" transform="translate(0,0)"/>
<path d="" fill="#D972AE" transform="translate(0,0)"/>
<path d="" fill="#8E73CB" transform="translate(0,0)"/>
<path d="" fill="#BC6EB3" transform="translate(0,0)"/>
<path d="" fill="#B46EBC" transform="translate(0,0)"/>
<path d="" fill="#8B6FC6" transform="translate(0,0)"/>
<path d="" fill="#896FC6" transform="translate(0,0)"/>
<path d="" fill="#956DC0" transform="translate(0,0)"/>
<path d="" fill="#896FC7" transform="translate(0,0)"/>
<path d="" fill="#976CBD" transform="translate(0,0)"/>
<path d="" fill="#896EC8" transform="translate(0,0)"/>
<path d="" fill="#9072CA" transform="translate(0,0)"/>
<path d="" fill="#8B6FC8" transform="translate(0,0)"/>
<path d="" fill="#8D6EC9" transform="translate(0,0)"/>
<path d="" fill="#8B6CC9" transform="translate(0,0)"/>
<path d="" fill="#8D6EC5" transform="translate(0,0)"/>
<path d="" fill="#8B6EC8" transform="translate(0,0)"/>
<path d="" fill="#8C6DCA" transform="translate(0,0)"/>
<path d="" fill="#896EC3" transform="translate(0,0)"/>
</svg>
