<?xml version="1.0" standalone="no"?><!-- Generator: Gravit.io --><svg xmlns="http://www.w3.org/2000/svg" xmlns:xlink="http://www.w3.org/1999/xlink" style="isolation:isolate" viewBox="0 0 1045.977 252.818" width="1045.977" height="252.818"><defs><clipPath id="_clipPath_QVxpE9GW25CrYSN1mIqjCWKqdcNjqiMq"><rect width="1045.977" height="252.818"/></clipPath></defs><g clip-path="url(#_clipPath_QVxpE9GW25CrYSN1mIqjCWKqdcNjqiMq)"><clipPath id="_clipPath_Jm47X3zhTlyluCshTGfFiTJbn2cc29EA"><path d=" M 0 0 L 0 252.818 L 1045.977 252.818 L 1045.977 0 L 0 0 Z " fill="rgb(255,255,255)"/></clipPath><g clip-path="url(#_clipPath_Jm47X3zhTlyluCshTGfFiTJbn2cc29EA)"><path d=" M 1045.977 252.818 L 0 252.818 L 0 0 L 1045.977 0 L 1045.977 252.818 Z " fill="rgb(39,42,43)"/></g><clipPath id="_clipPath_TeR9kAi5wvFQbh86OoLiFkSwchXudxel"><path d=" M 0 0 L 0 252.818 L 1045.977 252.818 L 1045.977 0 L 0 0 Z " fill="rgb(255,255,255)"/></clipPath><g clip-path="url(#_clipPath_TeR9kAi5wvFQbh86OoLiFkSwchXudxel)"><path d=" M 78.772 73.83 L 103.242 73.83 L 111.658 147.373 L 111.918 147.373 L 119.557 73.83 L 142.732 73.83 L 149.984 147.373 L 150.242 147.373 L 158.789 73.83 L 182.74 73.83 L 164.614 177.281 L 138.072 177.281 L 131.081 113.579 L 130.821 113.579 L 122.924 177.281 L 96.38 177.281 L 78.772 73.83 Z " fill="rgb(141,188,59)"/></g><clipPath id="_clipPath_Z045wneh3XZNpfBWRWpwvFLbkMIlGtbA"><path d=" M 0 0 L 0 252.818 L 1045.977 252.818 L 1045.977 0 L 0 0 Z " fill="rgb(255,255,255)"/></clipPath><g clip-path="url(#_clipPath_Z045wneh3XZNpfBWRWpwvFLbkMIlGtbA)"><path d=" M 190.003 73.83 L 242.958 73.83 L 242.958 93.769 L 213.826 93.769 L 213.826 114.356 L 239.332 114.356 L 239.332 134.295 L 213.826 134.295 L 213.826 157.341 L 244.123 157.341 L 244.123 177.281 L 190.003 177.281 L 190.003 73.83 Z " fill="rgb(141,188,59)"/></g><clipPath id="_clipPath_wPIyYi4ZM84IKUDGds4RU30DOeeSL80m"><path d=" M 0 0 L 0 252.818 L 1045.977 252.818 L 1045.977 0 L 0 0 Z " fill="rgb(255,255,255)"/></clipPath><g clip-path="url(#_clipPath_wPIyYi4ZM84IKUDGds4RU30DOeeSL80m)"><path d=" M 254.748 73.83 L 278.571 73.83 L 278.571 157.341 L 304.467 157.341 L 304.467 177.281 L 254.748 177.281 L 254.748 73.83 Z " fill="rgb(141,188,59)"/></g><clipPath id="_clipPath_7RtuLM8K5iencD4qk4HrreRuadJtXegb"><path d=" M 0 0 L 0 252.818 L 1045.977 252.818 L 1045.977 0 L 0 0 Z " fill="rgb(255,255,255)"/></clipPath><g clip-path="url(#_clipPath_7RtuLM8K5iencD4qk4HrreRuadJtXegb)"><path d=" M 312.24 102.056 C 312.24 81.858 325.186 72.147 342.924 72.147 C 360.663 72.147 373.611 81.858 373.611 102.056 L 373.611 111.637 L 349.786 111.637 L 349.786 99.984 C 349.786 96.488 349.786 90.532 342.924 90.532 C 336.062 90.532 336.062 96.488 336.062 99.984 L 336.062 151.127 C 336.062 153.846 336.062 160.579 342.924 160.579 C 349.786 160.579 349.786 153.846 349.786 151.127 L 349.786 135.978 L 373.611 135.978 L 373.611 149.055 C 373.611 167.441 361.828 178.963 342.924 178.963 C 324.021 178.963 312.24 167.441 312.24 149.055 L 312.24 102.056 Z " fill="rgb(141,188,59)"/></g><clipPath id="_clipPath_lce1cbYyphiENaixMfHEwdNuqsvQfVyX"><path d=" M 0 0 L 0 252.818 L 1045.977 252.818 L 1045.977 0 L 0 0 Z " fill="rgb(255,255,255)"/></clipPath><g clip-path="url(#_clipPath_lce1cbYyphiENaixMfHEwdNuqsvQfVyX)"><path d=" M 408.059 151.127 C 408.059 153.846 408.059 160.579 414.921 160.579 C 421.783 160.579 421.783 153.846 421.783 151.127 L 421.783 99.984 C 421.783 96.488 421.783 90.532 414.921 90.532 C 408.059 90.532 408.059 96.488 408.059 99.984 L 408.059 151.127 Z  M 384.236 102.056 C 384.236 81.858 397.183 72.147 414.921 72.147 C 432.659 72.147 445.607 81.858 445.607 102.056 L 445.607 149.055 C 445.607 167.441 433.824 178.963 414.921 178.963 C 396.018 178.963 384.236 167.441 384.236 149.055 L 384.236 102.056 Z " fill="rgb(141,188,59)"/></g><clipPath id="_clipPath_bZBsmixez7QEfyWMgulNC8osGaUyopaL"><path d=" M 0 0 L 0 252.818 L 1045.977 252.818 L 1045.977 0 L 0 0 Z " fill="rgb(255,255,255)"/></clipPath><g clip-path="url(#_clipPath_bZBsmixez7QEfyWMgulNC8osGaUyopaL)"><path d=" M 456.88 73.83 L 494.428 73.83 L 501.161 125.102 L 501.418 125.102 L 508.152 73.83 L 545.699 73.83 L 545.699 177.281 L 522.653 177.281 L 522.653 96.877 L 522.393 96.877 L 509.058 177.281 L 493.521 177.281 L 480.185 96.877 L 479.926 96.877 L 479.926 177.281 L 456.88 177.281 L 456.88 73.83 Z " fill="rgb(141,188,59)"/></g><clipPath id="_clipPath_skC0jsw5kwWJE82vsbN40dao6RBiOzD2"><path d=" M 0 0 L 0 252.818 L 1045.977 252.818 L 1045.977 0 L 0 0 Z " fill="rgb(255,255,255)"/></clipPath><g clip-path="url(#_clipPath_skC0jsw5kwWJE82vsbN40dao6RBiOzD2)"><path d=" M 556.975 73.83 L 609.929 73.83 L 609.929 93.769 L 580.797 93.769 L 580.797 114.356 L 606.305 114.356 L 606.305 134.295 L 580.797 134.295 L 580.797 157.341 L 611.095 157.341 L 611.095 177.281 L 556.975 177.281 L 556.975 73.83 Z " fill="rgb(141,188,59)"/></g><clipPath id="_clipPath_MGnXLr242YWfjcTLEg56BtSNXfOJuh9G"><path d=" M 0 0 L 0 252.818 L 1045.977 252.818 L 1045.977 0 L 0 0 Z " fill="rgb(255,255,255)"/></clipPath><g clip-path="url(#_clipPath_MGnXLr242YWfjcTLEg56BtSNXfOJuh9G)"><path d=" M 645.544 159.671 L 650.463 159.671 C 658.362 159.671 659.269 155.788 659.269 145.56 C 659.269 138.439 658.362 131.576 650.982 131.576 L 645.544 131.576 L 645.544 159.671 Z  M 645.544 114.743 L 649.946 114.743 C 657.454 114.743 658.232 109.176 658.232 102.703 C 658.232 95.453 656.679 91.439 650.853 91.439 L 645.544 91.439 L 645.544 114.743 Z  M 621.721 73.83 L 654.738 73.83 C 672.086 73.83 680.501 80.434 680.501 98.171 C 680.501 109.047 678.948 118.629 667.426 122.513 L 667.426 122.772 C 679.078 124.843 683.091 133.519 683.091 146.596 C 683.091 163.946 676.746 177.281 655.513 177.281 L 621.721 177.281 L 621.721 73.83 Z " fill="rgb(255,255,255)"/></g><clipPath id="_clipPath_5yMqWChoQyGZgt2zrq0wj3RYhCL2W5u0"><path d=" M 0 0 L 0 252.818 L 1045.977 252.818 L 1045.977 0 L 0 0 Z " fill="rgb(255,255,255)"/></clipPath><g clip-path="url(#_clipPath_5yMqWChoQyGZgt2zrq0wj3RYhCL2W5u0)"><path d=" M 717.54 115.003 L 723.366 115.003 C 731.524 115.003 731.524 109.566 731.524 102.833 C 731.524 95.583 731.524 91.439 722.201 91.439 L 717.54 91.439 L 717.54 115.003 Z  M 693.718 73.83 L 725.178 73.83 C 746.414 73.83 755.347 80.174 755.347 98.819 C 755.347 110.99 753.664 118.887 740.975 122.772 L 740.975 123.03 C 749.391 124.715 754.83 130.799 754.83 139.474 L 754.83 157.731 C 754.83 164.593 754.571 173.914 757.29 177.281 L 733.726 177.281 C 731.007 173.914 731.007 164.593 731.007 157.731 L 731.007 141.158 C 731.007 135.201 728.675 132.612 721.942 132.612 L 717.54 132.612 L 717.54 177.281 L 693.718 177.281 L 693.718 73.83 Z " fill="rgb(255,255,255)"/></g><clipPath id="_clipPath_sDMhJ4L1FIrR7rcBVr7kvoJkoFAlObtr"><path d=" M 0 0 L 0 252.818 L 1045.977 252.818 L 1045.977 0 L 0 0 Z " fill="rgb(255,255,255)"/></clipPath><g clip-path="url(#_clipPath_sDMhJ4L1FIrR7rcBVr7kvoJkoFAlObtr)"><path d=" M 765.715 73.83 L 818.669 73.83 L 818.669 93.769 L 789.538 93.769 L 789.538 114.356 L 815.043 114.356 L 815.043 134.295 L 789.538 134.295 L 789.538 157.341 L 819.834 157.341 L 819.834 177.281 L 765.715 177.281 L 765.715 73.83 Z " fill="rgb(255,255,255)"/></g><clipPath id="_clipPath_riiI4yObzklMp1lyoKEPGV9TxrYnY2Pg"><path d=" M 0 0 L 0 252.818 L 1045.977 252.818 L 1045.977 0 L 0 0 Z " fill="rgb(255,255,255)"/></clipPath><g clip-path="url(#_clipPath_riiI4yObzklMp1lyoKEPGV9TxrYnY2Pg)"><path d=" M 854.798 140.511 L 866.711 140.511 L 861.144 89.885 L 860.885 89.885 L 854.798 140.511 Z  M 845.216 73.83 L 876.809 73.83 L 896.23 177.281 L 871.241 177.281 L 869.042 158.895 L 852.341 158.895 L 849.879 177.281 L 826.054 177.281 L 845.216 73.83 Z " fill="rgb(255,255,255)"/></g><clipPath id="_clipPath_rKepGMckjundZiGzEuNWwqaUbh7sr11b"><path d=" M 0 0 L 0 252.818 L 1045.977 252.818 L 1045.977 0 L 0 0 Z " fill="rgb(255,255,255)"/></clipPath><g clip-path="url(#_clipPath_rKepGMckjundZiGzEuNWwqaUbh7sr11b)"><path d=" M 902.455 73.83 L 925.502 73.83 L 925.502 116.169 L 925.89 116.169 L 941.684 73.83 L 966.935 73.83 L 947.123 116.686 L 967.063 177.281 L 941.684 177.281 L 931.07 140.251 L 925.502 148.797 L 925.502 177.281 L 902.455 177.281 L 902.455 73.83 Z " fill="rgb(255,255,255)"/></g></g></svg>